<svg version="1.2" baseProfile="tiny-ps" xmlns="http://www.w3.org/2000/svg" viewBox="0 0 200 200" width="200" height="200">
    <use id="Background" href="#img1" x="0" y="0" />
    <path id="V " fill="#0e6d2a" aria-label="V"  d="M108.2 155L91.42 155L49.68 45.65L65.13 45.65L99.77 137.71L134.49 45.65L149.87 45.65L108.2 155Z" />
    <path id="V " fill="#000000" aria-label="V"  d="M104.66 119L94.7 119L69.93 54.12L79.1 54.12L99.66 108.74L120.26 54.12L129.38 54.12L104.66 119Z" />
    <path id="JOB " fill="#0e6d2a" aria-label="JOB"  d="M87.77 64.24L87.77 54.06L89.25 54.06L89.25 64.24Q89.25 66.22 88.5 67.11Q87.75 68 86.09 68L85.52 68L85.52 66.76L85.98 66.76Q86.97 66.76 87.37 66.21Q87.77 65.66 87.77 64.24ZM96.63 55.07Q95.02 55.07 94.07 56.27Q93.13 57.47 93.13 59.54Q93.13 61.61 94.07 62.81Q95.02 64.01 96.63 64.01Q98.24 64.01 99.18 62.81Q100.13 61.61 100.13 59.54Q100.13 57.47 99.18 56.27Q98.24 55.07 96.63 55.07ZM96.63 53.87Q98.93 53.87 100.31 55.41Q101.69 56.95 101.69 59.54Q101.69 62.13 100.31 63.67Q98.93 65.21 96.63 65.21Q94.33 65.21 92.94 63.67Q91.57 62.14 91.57 59.54Q91.57 56.95 92.94 55.41Q94.33 53.87 96.63 53.87ZM107.85 59.78L105.48 59.78L105.48 63.78L107.85 63.78Q109.05 63.78 109.62 63.29Q110.2 62.8 110.2 61.78Q110.2 60.75 109.62 60.27Q109.05 59.78 107.85 59.78ZM107.67 55.28L105.48 55.28L105.48 58.58L107.67 58.58Q108.76 58.58 109.28 58.17Q109.82 57.76 109.82 56.93Q109.82 56.1 109.28 55.69Q108.76 55.28 107.67 55.28ZM104 65L104 54.06L107.78 54.06Q109.47 54.06 110.39 54.77Q111.3 55.47 111.3 56.77Q111.3 57.77 110.84 58.36Q110.37 58.96 109.46 59.1Q110.55 59.34 111.15 60.09Q111.76 60.83 111.76 61.94Q111.76 63.4 110.76 64.2Q109.77 65 107.93 65L104 65Z" />
</svg>